<svg
    xmlns="http://www.w3.org/2000/svg"
    version="1.1"
    width="1000"
    height="1000"
>
    <g clip-path="url(#SvgjsClipPath1402)">
        <rect
            width="1000"
            height="1000"
            fill="black"
        />
        <g transform="matrix(6.306306306306307,0,0,6.306306306306307,150,184.68468468468467)">
            <svg xmlns="http://www.w3.org/2000/svg"
                 version="1.1"
                 width="111"
                 height="100"
            >
                <svg
                    xmlns="http://www.w3.org/2000/svg"
                    width="111"
                    height="100"
                    viewBox="0 0 111 100"
                    fill="none"
                >
                    <rect
                        width="110.524"
                        height="100"
                        fill="black"
                    />
                    <path
                        d="M42.8977 62.3641C32.5984 52.0647 24.518 40.6704 19.9278 31.0416C17.6276 26.2163 16.2587 21.9485 15.8661 18.5531C15.4657 15.091 16.1222 13.0201 17.202 11.9403C18.2819 10.8604 20.3528 10.2039 23.8149 10.6043C27.2103 10.9969 31.4781 12.3658 36.3034 14.6661C44.7628 18.6988 54.4662 25.2967 63.7114 33.8553C65.0457 33.6412 66.2727 33.3315 67.5371 33.0234C68.0843 32.8901 68.6959 32.7034 69.2269 32.5554C59.0317 22.6767 47.9927 15.0629 38.3138 10.4488C33.2335 8.02694 28.4467 6.43682 24.3516 5.96326C20.3231 5.49741 16.4676 6.06756 13.8985 8.63669C11.3293 11.2058 10.7592 15.0613 11.225 19.0898C11.6986 23.1849 13.2887 27.9717 15.7106 33.052C20.5646 43.2343 28.9812 55.0547 39.5942 65.6676C50.2071 76.2806 62.0275 84.6972 72.2098 89.5512C77.2901 91.9731 82.0769 93.5632 86.172 94.0368C90.2005 94.5026 94.056 93.9325 96.6251 91.3633C99.1943 88.7942 99.7644 84.9387 99.2986 80.9103C98.825 76.8151 97.2349 72.0283 94.813 66.948C90.1988 57.2688 81.7016 45.3409 71.8224 35.1454C71.6744 35.6764 71.397 36.643 71.2637 37.1903C70.9557 38.4546 70.704 39.5099 70.4899 40.8442C79.049 50.0898 86.5628 60.4986 90.5958 68.9585C92.896 73.7837 94.2649 78.0515 94.6575 81.4469C95.0579 84.909 94.4015 86.9799 93.3216 88.0598C92.2417 89.1397 90.1708 89.7961 86.7087 89.3958C83.3133 89.0031 79.0455 87.6342 74.2202 85.334C64.5914 80.7438 53.1971 72.6635 42.8977 62.3641Z"
                        fill="white"
                    />
                    <path
                        fill-rule="evenodd"
                        clip-rule="evenodd"
                        d="M76.0973 24.8164C83.0467 21.313 87.0807 17.2959 87.0807 17.2959C87.0807 17.2959 83.0636 21.3299 79.5601 28.2793C74.4591 38.3977 70.4469 54.6967 81.5092 73.7237C84.5045 78.8757 88.6051 84.2277 94.0886 89.7111C88.6051 84.2277 83.2531 80.1271 78.1011 77.1318C59.0742 66.0697 42.775 70.0819 32.6566 75.1829C25.7073 78.6863 21.6734 82.7032 21.6734 82.7032C21.6734 82.7032 25.6904 78.6693 29.1938 71.7201C34.2948 61.6016 38.307 45.3025 27.2449 26.2755C24.2495 21.1235 20.1489 15.7715 14.6655 10.288C20.1489 15.7715 25.5009 19.8721 30.6529 22.8674C49.6798 33.9295 65.9788 29.9174 76.0973 24.8164ZM34.4059 30.0284C46.5274 35.4032 57.644 35.4389 66.845 33.1972C69.0862 32.6512 71.1929 31.9755 73.1526 31.224C72.4011 33.1836 71.7253 35.2903 71.1793 37.5315C68.9376 46.7326 68.9733 57.8491 74.3481 69.9708C62.2267 64.5961 51.1102 64.5604 41.9092 66.802C39.6678 67.3481 37.561 68.0238 35.6013 68.7754C36.3528 66.8157 37.0286 64.7089 37.5747 62.4675C39.8163 53.2665 39.7806 42.15 34.4059 30.0284Z"
                        fill="white"
                    />
                </svg>
            </svg>
        </g>
    </g>
    <defs>
        <clipPath id="SvgjsClipPath1402">
            <rect
                width="1000"
                height="1000"
                x="0"
                y="0"
                rx="500"
                ry="500"
            />
        </clipPath>
    </defs>
</svg>
