<svg
    xmlns="http://www.w3.org/2000/svg"
    width="123"
    height="38"
    viewBox="0 0 123 38"
    fill="none"
>
    <path
        d="M15.4901 23.5013C11.7711 19.7823 8.85332 15.6679 7.19582 12.191C6.36521 10.4486 5.87092 8.90751 5.72914 7.68144C5.58458 6.43131 5.82161 5.68353 6.21155 5.29358C6.6015 4.90364 7.34928 4.66661 8.59941 4.81117C9.82548 4.95295 11.3666 5.44724 13.1089 6.27786C16.1636 7.73407 19.6674 10.1165 23.0058 13.207C23.4876 13.1297 23.9307 13.0178 24.3873 12.9066C24.5849 12.8585 24.8057 12.791 24.9974 12.7376C21.316 9.17046 17.3299 6.42115 13.8349 4.75503C12.0004 3.88051 10.2719 3.30632 8.79321 3.13532C7.33855 2.96711 5.94635 3.17299 5.01866 4.10069C4.09096 5.02839 3.88508 6.42058 4.05329 7.87524C4.22429 9.35396 4.79848 11.0825 5.673 12.9169C7.42577 16.5937 10.4649 20.862 14.2972 24.6942C18.1295 28.5265 22.3978 31.5657 26.0746 33.3185C27.909 34.193 29.6375 34.7672 31.1162 34.9382C32.5709 35.1064 33.9631 34.9005 34.8908 33.9728C35.8185 33.0451 36.0244 31.6529 35.8561 30.1983C35.6851 28.7195 35.111 26.9911 34.2364 25.1566C32.5703 21.6615 29.502 17.3544 25.9347 13.6728C25.8812 13.8646 25.7811 14.2136 25.7329 14.4112C25.6217 14.8678 25.5308 15.2488 25.4535 15.7307C28.5442 19.0692 31.2573 22.8277 32.7136 25.8825C33.5442 27.6249 34.0385 29.166 34.1803 30.3921C34.3249 31.6422 34.0878 32.39 33.6979 32.7799C33.3079 33.1699 32.5602 33.4069 31.31 33.2623C30.084 33.1206 28.5429 32.6263 26.8005 31.7957C23.3236 30.1381 19.2092 27.2204 15.4901 23.5013Z"
        fill="white"
    />
    <path
        fill-rule="evenodd"
        clip-rule="evenodd"
        d="M27.4783 9.94309C29.9877 8.67803 31.4443 7.22749 31.4443 7.22749C31.4443 7.22749 29.9938 8.68414 28.7287 11.1935C26.8867 14.8472 25.438 20.7327 29.4325 27.6032C30.5141 29.4636 31.9948 31.3962 33.9749 33.3762C31.9948 31.3962 30.0622 29.9155 28.2019 28.8339C21.3314 24.8394 15.4458 26.2882 11.7921 28.1302C9.28277 29.3952 7.82614 30.8457 7.82614 30.8457C7.82614 30.8457 9.27665 29.3891 10.5417 26.8797C12.3837 23.226 13.8325 17.3405 9.83796 10.47C8.75636 8.6096 7.27566 6.67702 5.29562 4.69698C7.27566 6.67702 9.20824 8.15772 11.0686 9.23932C17.9391 13.2338 23.8246 11.785 27.4783 9.94309ZM12.4238 11.8251C16.8008 13.7659 20.8149 13.7788 24.1374 12.9694C24.9467 12.7722 25.7074 12.5282 26.415 12.2568C26.1436 12.9644 25.8996 13.7251 25.7024 14.5344C24.893 17.8569 24.9059 21.871 26.8467 26.2481C22.4697 24.3073 18.4556 24.2944 15.1332 25.1039C14.3238 25.301 13.5631 25.5451 12.8554 25.8164C13.1268 25.1088 13.3708 24.348 13.568 23.5387C14.3774 20.2163 14.3646 16.2022 12.4238 11.8251Z"
        fill="white"
    />
    <path
        d="M50.3038 29.0352H47.9102V9.03516H50.5697L55.9155 25.144C55.88 24.4728 55.8357 23.8016 55.7825 23.1304C55.7293 22.4411 55.6761 21.7608 55.6229 21.0896C55.5875 20.4184 55.5609 19.7472 55.5431 19.076C55.5254 18.3866 55.5165 17.7064 55.5165 17.0352V9.03516H57.9102V29.0352H55.2506L49.9048 12.9263C49.9403 13.5975 49.9846 14.2778 50.0378 14.9671C50.091 15.6383 50.1353 16.3095 50.1708 16.9807C50.224 17.6519 50.2594 18.3322 50.2772 19.0216C50.2949 19.6928 50.3038 20.364 50.3038 21.0352V29.0352Z"
        fill="white"
    />
    <path
        d="M65.1172 29.0352C64.658 29.0352 64.1988 28.9908 63.7396 28.902C63.2975 28.8132 62.8723 28.6534 62.4641 28.4226C62.073 28.1918 61.7158 27.8989 61.3927 27.5438C61.0866 27.1887 60.8315 26.7981 60.6274 26.372C60.4403 25.9459 60.3043 25.4932 60.2192 25.0139C60.1512 24.5345 60.1172 24.064 60.1172 23.6024V14.4679C60.1172 14.0063 60.1512 13.5358 60.2192 13.0565C60.3043 12.5771 60.4403 12.1244 60.6274 11.6983C60.8315 11.2722 61.0866 10.8816 61.3927 10.5265C61.7158 10.1714 62.073 9.87848 62.4641 9.64767C62.8723 9.41687 63.2975 9.25708 63.7396 9.16831C64.1988 9.07954 64.658 9.03516 65.1172 9.03516C65.5764 9.03516 66.0271 9.07954 66.4692 9.16831C66.9284 9.25708 67.3536 9.41687 67.7447 9.64767C68.1529 9.87848 68.51 10.1714 68.8162 10.5265C69.1393 10.8816 69.3944 11.2722 69.5815 11.6983C69.7856 12.1244 69.9216 12.5771 69.9896 13.0565C70.0747 13.5358 70.1172 14.0063 70.1172 14.4679V23.6024C70.1172 24.064 70.0747 24.5345 69.9896 25.0139C69.9216 25.4932 69.7856 25.9459 69.5815 26.372C69.3944 26.7981 69.1393 27.1887 68.8162 27.5438C68.51 27.8989 68.1529 28.1918 67.7447 28.4226C67.3536 28.6534 66.9284 28.8132 66.4692 28.902C66.0271 28.9908 65.5764 29.0352 65.1172 29.0352ZM65.1172 26.9047C65.5083 26.9047 65.891 26.8248 66.2651 26.665C66.6393 26.5052 66.9454 26.2655 67.1835 25.9459C67.4386 25.6086 67.6087 25.2358 67.6937 24.8274C67.7788 24.4191 67.8213 24.0107 67.8213 23.6024V14.4679C67.8213 14.0596 67.7788 13.6512 67.6937 13.2429C67.6087 12.8345 67.4386 12.4706 67.1835 12.151C66.9454 11.8137 66.6393 11.5651 66.2651 11.4053C65.891 11.2455 65.5083 11.1656 65.1172 11.1656C64.726 11.1656 64.3434 11.2455 63.9692 11.4053C63.5951 11.5651 63.2805 11.8137 63.0254 12.151C62.7873 12.4706 62.6257 12.8345 62.5407 13.2429C62.4556 13.6512 62.4131 14.0596 62.4131 14.4679V23.6024C62.4131 24.0107 62.4556 24.4191 62.5407 24.8274C62.6257 25.2358 62.7873 25.6086 63.0254 25.9459C63.2805 26.2655 63.5951 26.5052 63.9692 26.665C64.3434 26.8248 64.726 26.9047 65.1172 26.9047Z"
        fill="white"
    />
    <path
        d="M77.3242 29.0352C76.8579 29.0352 76.4002 28.9908 75.9512 28.902C75.5021 28.8132 75.0703 28.6534 74.6558 28.4226C74.2586 28.1918 73.9045 27.8989 73.5936 27.5438C73.2828 27.1887 73.0237 26.7981 72.8164 26.372C72.6265 25.9282 72.4969 25.4755 72.4278 25.0139C72.3588 24.5345 72.3242 24.064 72.3242 23.6024V14.4679C72.3242 14.0063 72.3588 13.5447 72.4278 13.0831C72.4969 12.6037 72.6265 12.151 72.8164 11.7249C73.0237 11.2811 73.2828 10.8816 73.5936 10.5265C73.9045 10.1714 74.2586 9.87848 74.6558 9.64767C75.0703 9.41687 75.5021 9.25708 75.9512 9.16831C76.4002 9.07954 76.8579 9.03516 77.3242 9.03516C77.756 9.03516 78.1878 9.07954 78.6196 9.16831C79.0513 9.23933 79.4572 9.37248 79.8372 9.56778C80.2344 9.76307 80.5885 10.0205 80.8993 10.3401C81.2275 10.6419 81.4952 10.9881 81.7025 11.3787C81.9097 11.7693 82.0652 12.1865 82.1688 12.6304C82.2724 13.0742 82.3242 13.5181 82.3242 13.9619V14.1483H79.9926V14.0418C79.9926 13.669 79.9322 13.2961 79.8113 12.9233C79.7076 12.5505 79.5349 12.2309 79.2931 11.9646C79.0513 11.6805 78.7491 11.4763 78.3864 11.3521C78.041 11.2278 77.6869 11.1656 77.3242 11.1656C76.927 11.1656 76.5384 11.2544 76.1584 11.432C75.7957 11.5917 75.4935 11.8403 75.2517 12.1776C75.0272 12.4972 74.8717 12.8612 74.7854 13.2695C74.699 13.6779 74.6558 14.0773 74.6558 14.4679V23.6024C74.6558 23.993 74.699 24.3925 74.7854 24.8008C74.8717 25.2091 75.0272 25.582 75.2517 25.9193C75.4935 26.2389 75.7957 26.4874 76.1584 26.665C76.5384 26.8248 76.927 26.9047 77.3242 26.9047C77.6869 26.9047 78.041 26.8425 78.3864 26.7182C78.7491 26.594 79.0513 26.3987 79.2931 26.1324C79.5349 25.8483 79.7076 25.5198 79.8113 25.147C79.9322 24.7742 79.9926 24.4013 79.9926 24.0285V23.922H82.3242V24.1084C82.3242 24.5522 82.2724 24.9961 82.1688 25.44C82.0652 25.8838 81.9097 26.301 81.7025 26.6916C81.4952 27.0822 81.2275 27.4373 80.8993 27.7569C80.5885 28.0587 80.2344 28.3072 79.8372 28.5025C79.4572 28.6978 79.0513 28.831 78.6196 28.902C78.1878 28.9908 77.756 29.0352 77.3242 29.0352Z"
        fill="white"
    />
    <path
        d="M88.3695 29.0352V11.212H84.5293V9.03516H94.5293V11.212H90.6891V29.0352H88.3695Z"
        fill="white"
    />
    <path
        d="M96.7363 29.0352V26.8583H100.451V11.212H96.7363V9.03516H106.736V11.212H103.022V26.8583H106.736V29.0352H96.7363Z"
        fill="white"
    />
    <path
        d="M113.943 29.0352C113.52 29.0352 113.089 28.9996 112.649 28.9286C112.226 28.8576 111.82 28.7245 111.431 28.5292C111.041 28.3339 110.686 28.0853 110.365 27.7835C110.043 27.4817 109.772 27.1355 109.552 26.7449C109.349 26.3543 109.197 25.9371 109.096 25.4932C108.994 25.0494 108.943 24.6055 108.943 24.1617V23.922H111.228V24.0551C111.228 24.4457 111.287 24.8274 111.405 25.2003C111.524 25.5554 111.71 25.8749 111.964 26.159C112.217 26.4253 112.522 26.6206 112.877 26.7449C113.233 26.8514 113.588 26.9047 113.943 26.9047C114.299 26.9047 114.654 26.8425 115.009 26.7182C115.365 26.594 115.669 26.3987 115.923 26.1324C116.177 25.866 116.363 25.5465 116.481 25.1736C116.6 24.8008 116.659 24.428 116.659 24.0551C116.659 23.5935 116.566 23.1585 116.38 22.7502C116.211 22.3241 115.974 21.9513 115.669 21.6317C115.382 21.3121 115.052 21.0369 114.679 20.8061C114.307 20.5753 113.935 20.3534 113.563 20.1403C113.19 19.9273 112.818 19.7054 112.446 19.4746C112.091 19.226 111.744 18.9597 111.405 18.6756C111.084 18.3738 110.779 18.0542 110.492 17.7169C110.221 17.3618 109.984 16.989 109.781 16.5984C109.595 16.2078 109.451 15.7906 109.349 15.3467C109.248 14.9029 109.197 14.459 109.197 14.0152C109.197 13.5713 109.239 13.1364 109.324 12.7103C109.426 12.2664 109.569 11.8492 109.756 11.4586C109.959 11.0502 110.212 10.6863 110.517 10.3667C110.822 10.0471 111.16 9.78971 111.532 9.59441C111.904 9.38136 112.302 9.23933 112.725 9.16831C113.148 9.07954 113.571 9.03516 113.994 9.03516C114.417 9.03516 114.832 9.07954 115.238 9.16831C115.661 9.23933 116.058 9.37248 116.431 9.56778C116.82 9.76307 117.167 10.0205 117.471 10.3401C117.776 10.6419 118.021 10.9881 118.207 11.3787C118.41 11.7693 118.554 12.1865 118.639 12.6304C118.74 13.0565 118.791 13.4826 118.791 13.9087V14.1483H116.507V14.0152C116.507 13.6423 116.456 13.2784 116.355 12.9233C116.253 12.5682 116.084 12.2575 115.847 11.9912C115.627 11.7071 115.348 11.503 115.009 11.3787C114.688 11.2367 114.349 11.1656 113.994 11.1656C113.639 11.1656 113.292 11.2367 112.954 11.3787C112.632 11.503 112.353 11.7071 112.116 11.9912C111.896 12.2575 111.735 12.5682 111.634 12.9233C111.532 13.2784 111.481 13.6423 111.481 14.0152C111.481 14.459 111.566 14.894 111.735 15.3201C111.904 15.7462 112.133 16.119 112.421 16.4386C112.725 16.7582 113.063 17.0334 113.436 17.2642C113.808 17.495 114.18 17.7169 114.552 17.93C114.942 18.143 115.314 18.3738 115.669 18.6224C116.042 18.8532 116.388 19.1106 116.71 19.3947C117.031 19.6787 117.327 19.9983 117.598 20.3534C117.886 20.6907 118.131 21.0636 118.334 21.4719C118.537 21.8625 118.69 22.2797 118.791 22.7236C118.893 23.1674 118.943 23.6113 118.943 24.0551C118.943 24.499 118.893 24.9517 118.791 25.4133C118.69 25.8572 118.529 26.2833 118.309 26.6916C118.106 27.0822 117.844 27.4373 117.522 27.7569C117.217 28.0587 116.862 28.3072 116.456 28.5025C116.067 28.6978 115.661 28.831 115.238 28.902C114.815 28.9908 114.383 29.0352 113.943 29.0352Z"
        fill="white"
    />
</svg>
