<svg
    xmlns="http://www.w3.org/2000/svg"
    width="16"
    height="16"
    viewBox="0 0 16 16"
    fill="none"
>
    <path
        fill-rule="evenodd"
        clip-rule="evenodd"
        d="M11.3333 8.66667C11.8608 8.66667 12.3763 8.82306 12.8149 9.11608C13.2534 9.4091 13.5952 9.82557 13.797 10.3128C13.9988 10.8001 14.0517 11.3363 13.9488 11.8536C13.8459 12.3709 13.5919 12.846 13.219 13.219C12.846 13.5919 12.3709 13.8459 11.8536 13.9488C11.3363 14.0517 10.8001 13.9988 10.3128 13.797C9.82558 13.5952 9.4091 13.2534 9.11608 12.8149C8.82307 12.3763 8.66667 11.8607 8.66667 11.3333H7.33334C7.33308 11.9803 7.09764 12.6051 6.67088 13.0913C6.24411 13.5776 5.65513 13.8921 5.01367 13.9763C4.37221 14.0605 3.72202 13.9086 3.18424 13.5489C2.64646 13.1893 2.25776 12.6464 2.09058 12.0214C1.92339 11.3964 1.98912 10.732 2.27551 10.1518C2.5619 9.57172 3.04943 9.1155 3.64725 8.86817C4.24507 8.62085 4.91242 8.5993 5.52496 8.80753C6.13749 9.01576 6.65344 9.43957 6.97667 10H9.02334C9.25744 9.59453 9.59416 9.25784 9.99966 9.02378C10.4052 8.78973 10.8651 8.66656 11.3333 8.66667ZM4.66667 10C4.31305 10 3.97391 10.1405 3.72386 10.3905C3.47381 10.6406 3.33334 10.9797 3.33334 11.3333C3.33334 11.687 3.47381 12.0261 3.72386 12.2761C3.97391 12.5262 4.31305 12.6667 4.66667 12.6667C5.02029 12.6667 5.35943 12.5262 5.60948 12.2761C5.85953 12.0261 6 11.687 6 11.3333C6 10.9797 5.85953 10.6406 5.60948 10.3905C5.35943 10.1405 5.02029 10 4.66667 10ZM11.3333 10C10.9797 10 10.6406 10.1405 10.3905 10.3905C10.1405 10.6406 10 10.9797 10 11.3333C10 11.687 10.1405 12.0261 10.3905 12.2761C10.6406 12.5262 10.9797 12.6667 11.3333 12.6667C11.687 12.6667 12.0261 12.5262 12.2761 12.2761C12.5262 12.0261 12.6667 11.687 12.6667 11.3333C12.6667 10.9797 12.5262 10.6406 12.2761 10.3905C12.0261 10.1405 11.687 10 11.3333 10ZM10.204 2C10.6566 1.99996 11.0958 2.15344 11.4499 2.43534C11.804 2.71725 12.052 3.11091 12.1533 3.552L12.1767 3.67133L12.6573 6.55733L12.664 6.612L12.6667 6.66667H13.3333C13.5033 6.66685 13.6667 6.73192 13.7902 6.84857C13.9138 6.96521 13.9882 7.12464 13.9981 7.29426C14.0081 7.46389 13.9529 7.63092 13.8438 7.76122C13.7348 7.89152 13.5801 7.97526 13.4113 7.99533L13.3333 8H2.66667C2.49675 7.99981 2.33331 7.93475 2.20976 7.8181C2.0862 7.70145 2.01185 7.54203 2.00189 7.3724C1.99193 7.20278 2.04712 7.03575 2.15618 6.90544C2.26524 6.77514 2.41994 6.6914 2.58867 6.67133L2.66667 6.66667H3.33334L3.33534 6.612L3.342 6.55733L3.82334 3.67067C3.89791 3.22441 4.12159 2.81663 4.45785 2.51392C4.7941 2.2112 5.22306 2.03144 5.67467 2.004L5.796 2H10.204ZM10.204 3.33333H5.796C5.6382 3.33341 5.48554 3.38945 5.36517 3.49151C5.24481 3.59356 5.16455 3.735 5.13867 3.89067L4.676 6.66667H11.324L10.8613 3.89067C10.8355 3.735 10.7552 3.59356 10.6348 3.49151C10.5145 3.38945 10.3618 3.33341 10.204 3.33333Z"
        fill="#a3a3a3"
    />
</svg>
