<svg
    xmlns="http://www.w3.org/2000/svg"
    viewBox="0 0 32 32"
    fill="none"
>
    <rect
        width="32"
        height="32"
        fill="#312755"
    />
    <g transform="translate(-1, -1)">
        <path
            d="M27.8053 9.73084C27.5735 8.85326 26.8284 7.97568 25.4872 6.99874C24.4109 6.22051 23.2684 5.77344 22.3577 5.77344C22.1755 5.77344 22.01 5.79 21.8444 5.82311C21.4304 5.9059 21.0661 6.20395 20.8343 6.65102C20.5528 7.18088 20.4866 7.89288 20.6688 8.3234C20.735 8.45586 20.8178 8.62144 20.9171 8.77047C20.0395 9.30033 19.5428 9.44935 19.4766 9.46591C21.7616 10.2276 23.6658 11.8172 24.858 13.8869L24.8745 13.6882C24.9242 13.1418 25.0898 12.5126 25.3216 11.8668C25.5534 11.9331 25.7852 11.9662 26.017 11.9662C26.6297 11.9662 27.1596 11.7178 27.4907 11.2708C27.8219 10.8237 27.9543 10.2276 27.8053 9.73084Z"
            fill="#5e12a0"
        />
        <path
            d="M25.4204 11.3878C26.9272 11.8017 27.5399 10.6427 27.3412 9.86444C27.1259 9.08621 26.4305 8.29141 25.2052 7.39727C23.9799 6.50313 22.738 6.13885 21.9432 6.30443C21.1484 6.47002 20.9166 7.67876 21.1153 8.14239C21.1981 8.32453 21.3802 8.58896 21.6286 8.88751C21.314 9.10277 21.016 9.26835 20.7676 9.41737C22.2909 10.0963 23.6156 11.156 24.6091 12.4806C24.725 12.0336 24.8906 11.6362 25.0396 11.2884C25.1555 11.305 25.288 11.3381 25.4204 11.3878Z"
            fill="url(#paint0_radial_11142_157102)"
        />
        <path
            d="M16.7931 27.6146C21.9051 27.6146 26.0492 23.4706 26.0492 18.3586C26.0492 13.2466 21.9051 9.10254 16.7931 9.10254C11.6811 9.10254 7.53711 13.2466 7.53711 18.3586C7.53711 23.4706 11.6811 27.6146 16.7931 27.6146Z"
            fill="url(#paint1_radial_11142_157102)"
        />
        <path
            d="M26.5797 9.10228C25.3213 7.77762 24.2616 7.4299 22.9866 7.14841C21.9931 6.91659 22.2581 6.35362 23.4668 6.46952C22.8873 6.27083 22.3408 6.22115 21.9434 6.30394C21.1487 6.46952 20.9168 7.67827 21.1155 8.1419C21.1983 8.32404 21.3805 8.58897 21.6288 8.88702C21.1818 9.18507 20.8009 9.40032 20.4863 9.56591C20.6354 9.63214 20.8175 9.71493 21.0327 9.83084C21.5957 10.1289 22.2084 10.6256 22.2084 10.6256C21.2811 9.83084 21.4798 9.46656 22.7548 8.57241C23.1522 8.29092 23.8808 8.32404 24.5596 8.67176C25.2385 9.01948 26.0333 9.89707 26.0333 9.89707L25.2716 11.3542C25.3213 11.3707 25.371 11.3873 25.4207 11.4039C25.9009 11.5363 26.2817 11.5032 26.5797 11.3873C26.9275 11.172 27.8382 10.4435 26.5797 9.10228Z"
            fill="#A98698"
            fill-opacity="0.6"
        />
        <path
            d="M22.9703 7.94376C23.3015 8.07622 23.732 8.30804 24.2619 8.65576C24.8911 9.06972 25.4375 9.53334 25.7852 9.89762C25.2057 10.6593 24.8249 11.7025 24.593 12.431C24.7089 12.5966 24.8414 12.7622 24.9573 12.9278C25.0732 12.5138 25.2719 11.9012 25.5369 11.2885C25.6031 11.3051 25.6859 11.3051 25.7687 11.3051C25.9674 11.3051 26.1992 11.272 26.3813 11.1229C26.5138 11.0236 26.6628 10.8414 26.6463 10.5103C26.6463 10.1957 26.3979 9.79828 25.8846 9.31809C25.5203 8.97037 25.0236 8.58953 24.5268 8.24181C23.1028 7.29799 22.1093 7.03306 21.6622 7.48013C21.3642 7.77818 21.3973 8.14246 21.4967 8.40739C20.9668 8.75511 20.5197 9.00348 20.2217 9.16906C20.4204 9.2353 20.6025 9.31809 20.8012 9.40088C21.3311 9.11939 22.0928 8.6392 22.9703 7.94376ZM26.0998 10.3116C26.1495 10.3944 26.1661 10.4772 26.1661 10.5268C26.1661 10.6759 26.1164 10.7255 26.0833 10.7586C26.017 10.8083 25.8846 10.8414 25.7687 10.8414C25.868 10.6427 25.9839 10.4772 26.0998 10.3116ZM22.01 7.84441C22.0596 7.79474 22.1921 7.76162 22.4074 7.79474C22.2418 7.9272 22.0762 8.04311 21.9106 8.15902C21.8941 8.04311 21.9106 7.9272 22.01 7.84441Z"
            fill="#5E12A0"
        />
        <path
            d="M16.7937 8.55469C11.3791 8.55469 6.99121 12.9426 6.99121 18.3571C6.99121 23.7717 11.3791 28.1596 16.7937 28.1596C22.2082 28.1596 26.5961 23.7717 26.5961 18.3571C26.5961 12.9426 22.1916 8.55469 16.7937 8.55469ZM16.7937 27.6132C11.6772 27.6132 7.53763 23.4736 7.53763 18.3571C7.53763 13.2407 11.6772 9.10111 16.7937 9.10111C21.9101 9.10111 26.0497 13.2407 26.0497 18.3571C26.0497 23.4736 21.8936 27.6132 16.7937 27.6132Z"
            fill="#5E12A0"
        />
        <path
            d="M16.7931 27.6146C21.9051 27.6146 26.0492 23.4706 26.0492 18.3586C26.0492 13.2466 21.9051 9.10254 16.7931 9.10254C11.6811 9.10254 7.53711 13.2466 7.53711 18.3586C7.53711 23.4706 11.6811 27.6146 16.7931 27.6146Z"
            fill="url(#paint2_linear_11142_157102)"
        />
        <path
            d="M16.7279 26.488C11.6777 25.6767 8.25014 20.9245 9.07805 15.8742C9.44233 13.6389 10.5683 11.7347 12.1579 10.3604C9.83973 11.7016 8.11768 14.0363 7.65405 16.8843C6.8427 21.9345 10.2702 26.6867 15.3039 27.4981C18.1188 27.9617 20.8344 27.0841 22.8379 25.3621C21.0662 26.3887 18.9136 26.8357 16.7279 26.488Z"
            fill="#A98698"
            fill-opacity="0.6"
        />
        <path
            d="M18.2674 9.23526C15.9327 8.85443 13.6642 9.38429 11.8097 10.5599C11.7766 10.593 11.7434 10.6262 11.7434 10.6262C12.4555 10.1956 13.4986 9.8148 13.4986 9.8148C10.8162 11.3713 9.98828 13.143 9.98828 13.143C11.0314 11.1229 14.0947 9.69889 16.4956 9.59954C18.8966 9.5002 20.4696 10.2122 22.3904 11.7521C24.3111 13.3086 25.4702 16.4877 25.3543 19.0046C25.2549 21.5214 23.9303 23.5581 23.9303 23.5581C24.841 22.3825 25.3874 21.5214 25.7351 20.6439C25.8014 20.3789 25.8676 20.114 25.9007 19.8325C26.7286 14.7988 23.3176 10.0466 18.2674 9.23526Z"
            fill="url(#paint3_linear_11142_157102)"
        />
        <path
            d="M25.5867 18.2754C25.5867 23.1269 21.6459 27.0678 16.7943 27.0678C11.9428 27.0678 7.98535 23.1269 7.98535 18.2754L25.5867 18.2754Z"
            fill="url(#paint4_linear_11142_157102)"
        />
        <path
            d="M24.891 18.2754C24.891 23.011 21.1488 26.8856 16.4463 27.0678L16.794 27.0678C21.6456 27.0678 25.5864 23.1269 25.5864 18.2754L24.891 18.2754Z"
            fill="url(#paint5_linear_11142_157102)"
        />
        <path
            d="M9.22722 18.2754L7.98535 18.2754C7.98535 23.1269 11.9262 27.0678 16.7777 27.0678C16.993 27.0678 17.1917 27.0678 17.3904 27.0512C12.8369 26.7201 9.22722 22.9117 9.22722 18.2754Z"
            fill="url(#paint6_linear_11142_157102)"
        />
        <path
            d="M25.5701 18.3594C25.5701 17.3494 23.815 16.7698 21.4803 16.5711C19.7913 16.4387 18.0858 16.6042 16.132 17.2003C14.443 17.6971 12.9197 17.6143 11.8103 17.4818C9.34312 17.2003 7.98535 17.1672 7.98535 18.3594C7.98535 20.0815 11.4957 22.234 16.7612 21.4889C19.4271 21.1081 20.8014 20.3298 22.3744 19.8C24.0799 19.237 25.5701 19.2535 25.5701 18.3594Z"
            fill="url(#paint7_linear_11142_157102)"
        />
        <path
            d="M22.1087 15.2946C22.4563 15.2946 22.7379 15.0129 22.7379 14.6653C22.7379 14.3178 22.4563 14.0361 22.1087 14.0361C21.7611 14.0361 21.4795 14.3178 21.4795 14.6653C21.4795 15.0129 21.7611 15.2946 22.1087 15.2946Z"
            fill="white"
        />
        <path
            d="M19.6748 14.1846C20.4979 14.1846 21.165 13.5174 21.165 12.6943C21.165 11.8712 20.4979 11.2041 19.6748 11.2041C18.8517 11.2041 18.1846 11.8712 18.1846 12.6943C18.1846 13.5174 18.8517 14.1846 19.6748 14.1846Z"
            fill="white"
        />
        <path
            d="M24.3624 11.5041L24.3293 11.5041C24.2299 11.4875 24.1637 11.3882 24.1803 11.2723C24.3293 10.5106 24.9585 9.78202 24.9916 9.74891C25.0579 9.66612 25.1903 9.66612 25.2566 9.73235C25.3393 9.79858 25.3393 9.93105 25.2731 9.99728C25.2566 10.0138 24.677 10.6927 24.5446 11.3551C24.528 11.4544 24.4452 11.5041 24.3624 11.5041Z"
            fill="url(#paint8_linear_11142_157102)"
        />
        <path
            d="M22.3574 5.77368C23.2846 5.77368 24.4271 6.22075 25.4869 6.99898C26.8281 7.97591 27.5732 8.83694 27.805 9.73108C27.9375 10.2444 27.8216 10.8239 27.4904 11.2544C27.1427 11.7015 26.6294 11.9499 26.0167 11.9499C25.8015 11.9499 25.5696 11.9168 25.3213 11.8505C25.1722 12.2314 25.0563 12.6122 24.9736 12.9765C25.9836 14.5164 26.5797 16.3709 26.5797 18.3579C26.5797 23.7724 22.1918 28.1603 16.7773 28.1603C11.3627 28.1603 6.99136 23.7724 6.99136 18.3579C6.99136 12.9434 11.3793 8.55545 16.7938 8.55545C17.986 8.55545 19.1285 8.77071 20.1882 9.1681C20.3869 9.06875 20.6353 8.93629 20.9168 8.77071C20.8174 8.62168 20.7181 8.47266 20.6684 8.32364C20.4863 7.87656 20.5525 7.18112 20.834 6.65126C21.0658 6.22075 21.4135 5.9227 21.8441 5.82335C21.9931 5.79023 22.1752 5.77368 22.3574 5.77368ZM22.3574 5.49219C22.1587 5.49219 21.96 5.50874 21.7778 5.55842C21.2811 5.67433 20.8506 6.00549 20.5691 6.53535C20.2545 7.148 20.1717 7.9428 20.3869 8.4561C20.4201 8.52233 20.4532 8.60512 20.5028 8.68792C20.3869 8.75415 20.271 8.82038 20.1551 8.87006C19.0623 8.48922 17.9363 8.29052 16.7773 8.29052C15.4195 8.29052 14.0948 8.55545 12.853 9.08531C11.6442 9.59862 10.5679 10.3272 9.64067 11.2544C8.71342 12.1817 7.98486 13.258 7.47155 14.4667C6.94169 15.7086 6.67676 17.0332 6.67676 18.391C6.67676 19.7488 6.94169 21.0734 7.47155 22.3153C7.98486 23.524 8.71342 24.6003 9.64067 25.5276C10.5679 26.4548 11.6442 27.1834 12.853 27.6967C14.0948 28.2266 15.4195 28.4915 16.7773 28.4915C18.135 28.4915 19.4597 28.2266 20.7015 27.6967C21.9103 27.1834 22.9866 26.4548 23.9138 25.5276C24.8411 24.6003 25.5696 23.524 26.083 22.3153C26.6128 21.0734 26.8777 19.7488 26.8777 18.391C26.8777 16.4537 26.3313 14.5826 25.2882 12.9599C25.3378 12.7116 25.4206 12.4632 25.5034 12.2148C25.669 12.2479 25.8511 12.2645 26.0167 12.2645C26.7122 12.2645 27.3248 11.983 27.7222 11.4531C28.103 10.9564 28.2521 10.2609 28.0865 9.68141C27.8216 8.72103 27.0599 7.81033 25.6524 6.80028C24.543 5.95582 23.3343 5.49219 22.3574 5.49219Z"
            fill="white"
        />
        <path
            d="M17.4063 26.1076C17.5984 26.1076 17.754 25.9519 17.754 25.7598C17.754 25.5678 17.5984 25.4121 17.4063 25.4121C17.2142 25.4121 17.0586 25.5678 17.0586 25.7598C17.0586 25.9519 17.2142 26.1076 17.4063 26.1076Z"
            fill="white"
            fill-opacity="0.2"
        />
        <path
            d="M17.2086 25.9751C17.0761 25.8427 17.0761 25.6109 17.2086 25.4784C17.2252 25.4618 17.2583 25.4453 17.2748 25.4287C17.2252 25.4453 17.192 25.4784 17.1589 25.5115C17.0265 25.644 17.0265 25.8758 17.1589 26.0082C17.2748 26.1242 17.4404 26.1407 17.5894 26.0579C17.457 26.1076 17.3079 26.0745 17.2086 25.9751Z"
            fill="url(#paint9_linear_11142_157102)"
        />
        <path
            d="M17.5223 25.6422C17.5589 25.6422 17.5885 25.6126 17.5885 25.576C17.5885 25.5394 17.5589 25.5098 17.5223 25.5098C17.4857 25.5098 17.4561 25.5394 17.4561 25.576C17.4561 25.6126 17.4857 25.6422 17.5223 25.6422Z"
            fill="white"
            fill-opacity="0.3"
        />
        <path
            d="M19.543 25.8605C19.7351 25.8605 19.8908 25.7048 19.8908 25.5128C19.8908 25.3207 19.7351 25.165 19.543 25.165C19.351 25.165 19.1953 25.3207 19.1953 25.5128C19.1953 25.7048 19.351 25.8605 19.543 25.8605Z"
            fill="white"
            fill-opacity="0.2"
        />
        <path
            d="M19.3443 25.7251C19.2119 25.5927 19.2119 25.3609 19.3443 25.2284C19.3609 25.2118 19.394 25.1953 19.4106 25.1787C19.3609 25.1953 19.3278 25.2284 19.2947 25.2615C19.1622 25.394 19.1622 25.6258 19.2947 25.7582C19.4106 25.8742 19.5762 25.8907 19.7252 25.8079C19.5927 25.8576 19.4437 25.8245 19.3443 25.7251Z"
            fill="url(#paint10_linear_11142_157102)"
        />
        <path
            d="M19.658 25.3961C19.6946 25.3961 19.7243 25.3665 19.7243 25.3299C19.7243 25.2933 19.6946 25.2637 19.658 25.2637C19.6214 25.2637 19.5918 25.2933 19.5918 25.3299C19.5918 25.3665 19.6214 25.3961 19.658 25.3961Z"
            fill="white"
            fill-opacity="0.3"
        />
        <path
            d="M16.1814 25.2632C16.4374 25.2632 16.645 25.0556 16.645 24.7996C16.645 24.5436 16.4374 24.3359 16.1814 24.3359C15.9254 24.3359 15.7178 24.5436 15.7178 24.7996C15.7178 25.0556 15.9254 25.2632 16.1814 25.2632Z"
            fill="white"
            fill-opacity="0.2"
        />
        <path
            d="M15.9167 25.0986C15.7346 24.9165 15.7346 24.6184 15.9167 24.4363C15.9498 24.4032 15.9829 24.3866 16.0161 24.3535C15.9498 24.3701 15.9001 24.4032 15.8505 24.4529C15.6683 24.635 15.6683 24.9331 15.8505 25.1152C15.9995 25.2642 16.2313 25.2973 16.4135 25.198C16.2479 25.2642 16.0492 25.2311 15.9167 25.0986Z"
            fill="url(#paint11_linear_11142_157102)"
        />
        <path
            d="M16.3464 24.6665C16.4012 24.6665 16.4458 24.6219 16.4458 24.5671C16.4458 24.5123 16.4012 24.4678 16.3464 24.4678C16.2916 24.4678 16.2471 24.5123 16.2471 24.5671C16.2471 24.6219 16.2916 24.6665 16.3464 24.6665Z"
            fill="white"
            fill-opacity="0.3"
        />
        <path
            d="M18.5984 25.0298C18.8544 25.0298 19.062 24.8222 19.062 24.5662C19.062 24.3102 18.8544 24.1025 18.5984 24.1025C18.3424 24.1025 18.1348 24.3102 18.1348 24.5662C18.1348 24.8222 18.3424 25.0298 18.5984 25.0298Z"
            fill="white"
            fill-opacity="0.2"
        />
        <path
            d="M18.3337 24.8652C18.1516 24.6831 18.1516 24.385 18.3337 24.2029C18.3668 24.1698 18.3999 24.1532 18.433 24.1201C18.3668 24.1367 18.3171 24.1698 18.2675 24.2195C18.0853 24.4016 18.0853 24.6997 18.2675 24.8818C18.4165 25.0308 18.6483 25.0639 18.8304 24.9646C18.6649 25.0308 18.4662 24.9977 18.3337 24.8652Z"
            fill="url(#paint12_linear_11142_157102)"
        />
        <path
            d="M18.7644 24.4341C18.8192 24.4341 18.8637 24.3895 18.8637 24.3347C18.8637 24.2799 18.8192 24.2354 18.7644 24.2354C18.7096 24.2354 18.665 24.2799 18.665 24.3347C18.665 24.3895 18.7096 24.4341 18.7644 24.4341Z"
            fill="white"
            fill-opacity="0.3"
        />
        <path
            d="M14.2099 25.0985C14.6307 25.0985 14.9716 24.7576 14.9716 24.3369C14.9716 23.9163 14.6307 23.5752 14.2099 23.5752C13.7893 23.5752 13.4482 23.9163 13.4482 24.3369C13.4482 24.7576 13.7893 25.0985 14.2099 25.0985Z"
            fill="white"
            fill-opacity="0.2"
        />
        <path
            d="M13.7809 24.8143C13.4828 24.5162 13.4828 24.036 13.7809 23.738C13.8306 23.6883 13.8802 23.6552 13.9465 23.6221C13.8471 23.6552 13.7643 23.7214 13.6815 23.7877C13.3835 24.0857 13.3835 24.5659 13.6815 24.8639C13.9299 25.1123 14.3108 25.162 14.6088 24.9798C14.3273 25.0958 13.9961 25.0461 13.7809 24.8143Z"
            fill="url(#paint13_linear_11142_157102)"
        />
        <path
            d="M14.4752 24.1026C14.5666 24.1026 14.6407 24.0285 14.6407 23.9371C14.6407 23.8457 14.5666 23.7715 14.4752 23.7715C14.3838 23.7715 14.3096 23.8457 14.3096 23.9371C14.3096 24.0285 14.3838 24.1026 14.4752 24.1026Z"
            fill="white"
            fill-opacity="0.3"
        />
        <path
            d="M21.0166 23.2265C21.4373 23.2265 21.7782 22.8855 21.7782 22.4648C21.7782 22.0442 21.4373 21.7031 21.0166 21.7031C20.596 21.7031 20.2549 22.0442 20.2549 22.4648C20.2549 22.8855 20.596 23.2265 21.0166 23.2265Z"
            fill="white"
            fill-opacity="0.2"
        />
        <path
            d="M20.57 22.9432C20.2719 22.6451 20.2719 22.1649 20.57 21.8669C20.6196 21.8172 20.6693 21.7841 20.7355 21.751C20.6362 21.7841 20.5534 21.8503 20.4706 21.9166C20.1726 22.2146 20.1726 22.6948 20.4706 22.9928C20.719 23.2412 21.0998 23.2909 21.3979 23.1087C21.1164 23.2247 20.8018 23.175 20.57 22.9432Z"
            fill="url(#paint14_linear_11142_157102)"
        />
        <path
            d="M21.2818 22.2316C21.3732 22.2316 21.4474 22.1574 21.4474 22.066C21.4474 21.9746 21.3732 21.9004 21.2818 21.9004C21.1904 21.9004 21.1162 21.9746 21.1162 22.066C21.1162 22.1574 21.1904 22.2316 21.2818 22.2316Z"
            fill="white"
            fill-opacity="0.3"
        />
    </g>
    <defs>
        <radialGradient
            id="paint0_radial_11142_157102"
            cx="0"
            cy="0"
            r="1"
            gradientUnits="userSpaceOnUse"
            gradientTransform="translate(27.0392 8.82126) scale(7.40059 7.40058)"
        >
            <stop
                stop-color="#FFEAFF"
                stop-opacity="0.6"
            />
            <stop
                offset="0.68"
                stop-color="#A087C9"
            />
            <stop
                offset="1"
                stop-color="#10002F"
            />
        </radialGradient>
        <radialGradient
            id="paint1_radial_11142_157102"
            cx="0"
            cy="0"
            r="1"
            gradientUnits="userSpaceOnUse"
            gradientTransform="translate(22.9214 11.9773) scale(18.1065 18.1065)"
        >
            <stop
                stop-color="#FFEAFF"
                stop-opacity="0.6"
            />
            <stop
                offset="0.68"
                stop-color="#A087C9"
            />
            <stop
                offset="1"
                stop-color="#10002F"
            />
        </radialGradient>
        <linearGradient
            id="paint2_linear_11142_157102"
            x1="15.3084"
            y1="27.4833"
            x2="18.2689"
            y2="9.21845"
            gradientUnits="userSpaceOnUse"
        >
            <stop
                stop-color="#81FFFF"
                stop-opacity="0.6"
            />
            <stop
                offset="0.62"
                stop-color="white"
                stop-opacity="0"
            />
            <stop
                offset="1"
                stop-color="white"
                stop-opacity="0"
            />
        </linearGradient>
        <linearGradient
            id="paint3_linear_11142_157102"
            x1="23.3168"
            y1="12.0728"
            x2="15.6629"
            y2="19.0954"
            gradientUnits="userSpaceOnUse"
        >
            <stop
                stop-color="white"
                stop-opacity="0.6"
            />
            <stop
                offset="0.29"
                stop-color="white"
                stop-opacity="0.6"
            />
            <stop
                offset="0.78"
                stop-color="white"
                stop-opacity="0"
            />
            <stop
                offset="1"
                stop-color="white"
                stop-opacity="0"
            />
        </linearGradient>
        <linearGradient
            id="paint4_linear_11142_157102"
            x1="7.99281"
            y1="22.6665"
            x2="25.5824"
            y2="22.6665"
            gradientUnits="userSpaceOnUse"
        >
            <stop stop-color="#0002E9" />
            <stop
                offset="1"
                stop-color="#FF00C7"
            />
        </linearGradient>
        <linearGradient
            id="paint5_linear_11142_157102"
            x1="26.4148"
            y1="19.0469"
            x2="16.8408"
            y2="28.0949"
            gradientUnits="userSpaceOnUse"
        >
            <stop
                stop-color="white"
                stop-opacity="0.6"
            />
            <stop
                offset="0.29"
                stop-color="white"
                stop-opacity="0.6"
            />
            <stop
                offset="0.78"
                stop-color="white"
                stop-opacity="0"
            />
            <stop
                offset="1"
                stop-color="white"
                stop-opacity="0"
            />
        </linearGradient>
        <linearGradient
            id="paint6_linear_11142_157102"
            x1="7.99281"
            y1="22.6665"
            x2="17.4032"
            y2="22.6665"
            gradientUnits="userSpaceOnUse"
        >
            <stop
                stop-color="#000292"
                stop-opacity="0.7"
            />
            <stop
                offset="1"
                stop-color="#7D00C7"
                stop-opacity="0.7"
            />
        </linearGradient>
        <linearGradient
            id="paint7_linear_11142_157102"
            x1="8.00461"
            y1="19.0898"
            x2="25.5707"
            y2="19.0898"
            gradientUnits="userSpaceOnUse"
        >
            <stop stop-color="#000292" />
            <stop
                offset="1"
                stop-color="#BE00C7"
            />
        </linearGradient>
        <linearGradient
            id="paint8_linear_11142_157102"
            x1="25.2834"
            y1="9.66827"
            x2="24.021"
            y2="11.7198"
            gradientUnits="userSpaceOnUse"
        >
            <stop
                stop-color="white"
                stop-opacity="0.6"
            />
            <stop
                offset="0.29"
                stop-color="white"
                stop-opacity="0.6"
            />
            <stop
                offset="0.78"
                stop-color="white"
                stop-opacity="0"
            />
            <stop
                offset="1"
                stop-color="white"
                stop-opacity="0"
            />
        </linearGradient>
        <linearGradient
            id="paint9_linear_11142_157102"
            x1="17.0574"
            y1="25.7638"
            x2="17.5833"
            y2="25.7638"
            gradientUnits="userSpaceOnUse"
        >
            <stop
                stop-color="white"
                stop-opacity="0.6"
            />
            <stop
                offset="0.29"
                stop-color="white"
                stop-opacity="0.6"
            />
            <stop
                offset="0.78"
                stop-color="white"
                stop-opacity="0"
            />
            <stop
                offset="1"
                stop-color="white"
                stop-opacity="0"
            />
        </linearGradient>
        <linearGradient
            id="paint10_linear_11142_157102"
            x1="19.186"
            y1="25.5132"
            x2="19.7119"
            y2="25.5132"
            gradientUnits="userSpaceOnUse"
        >
            <stop
                stop-color="white"
                stop-opacity="0.6"
            />
            <stop
                offset="0.29"
                stop-color="white"
                stop-opacity="0.6"
            />
            <stop
                offset="0.78"
                stop-color="white"
                stop-opacity="0"
            />
            <stop
                offset="1"
                stop-color="white"
                stop-opacity="0"
            />
        </linearGradient>
        <linearGradient
            id="paint11_linear_11142_157102"
            x1="15.7134"
            y1="24.8148"
            x2="16.414"
            y2="24.8148"
            gradientUnits="userSpaceOnUse"
        >
            <stop
                stop-color="white"
                stop-opacity="0.6"
            />
            <stop
                offset="0.29"
                stop-color="white"
                stop-opacity="0.6"
            />
            <stop
                offset="0.78"
                stop-color="white"
                stop-opacity="0"
            />
            <stop
                offset="1"
                stop-color="white"
                stop-opacity="0"
            />
        </linearGradient>
        <linearGradient
            id="paint12_linear_11142_157102"
            x1="18.1287"
            y1="24.5783"
            x2="18.8293"
            y2="24.5783"
            gradientUnits="userSpaceOnUse"
        >
            <stop
                stop-color="white"
                stop-opacity="0.6"
            />
            <stop
                offset="0.29"
                stop-color="white"
                stop-opacity="0.6"
            />
            <stop
                offset="0.78"
                stop-color="white"
                stop-opacity="0"
            />
            <stop
                offset="1"
                stop-color="white"
                stop-opacity="0"
            />
        </linearGradient>
        <linearGradient
            id="paint13_linear_11142_157102"
            x1="13.4504"
            y1="24.3534"
            x2="14.5945"
            y2="24.3534"
            gradientUnits="userSpaceOnUse"
        >
            <stop
                stop-color="white"
                stop-opacity="0.6"
            />
            <stop
                offset="0.29"
                stop-color="white"
                stop-opacity="0.6"
            />
            <stop
                offset="0.78"
                stop-color="white"
                stop-opacity="0"
            />
            <stop
                offset="1"
                stop-color="white"
                stop-opacity="0"
            />
        </linearGradient>
        <linearGradient
            id="paint14_linear_11142_157102"
            x1="20.2458"
            y1="22.4819"
            x2="21.3899"
            y2="22.4819"
            gradientUnits="userSpaceOnUse"
        >
            <stop
                stop-color="white"
                stop-opacity="0.6"
            />
            <stop
                offset="0.29"
                stop-color="white"
                stop-opacity="0.6"
            />
            <stop
                offset="0.78"
                stop-color="white"
                stop-opacity="0"
            />
            <stop
                offset="1"
                stop-color="white"
                stop-opacity="0"
            />
        </linearGradient>
    </defs>
</svg>
